<?xml version="1.0" encoding="UTF-8" standalone="no"?>
<!-- Generator: Adobe Illustrator 12.0.1, SVG Export Plug-In . SVG Version: 6.00 Build 51448)  -->
<svg
   xmlns:dc="http://purl.org/dc/elements/1.1/"
   xmlns:cc="http://web.resource.org/cc/"
   xmlns:rdf="http://www.w3.org/1999/02/22-rdf-syntax-ns#"
   xmlns:svg="http://www.w3.org/2000/svg"
   xmlns="http://www.w3.org/2000/svg"
   xmlns:sodipodi="http://sodipodi.sourceforge.net/DTD/sodipodi-0.dtd"
   xmlns:inkscape="http://www.inkscape.org/namespaces/inkscape"
   version="1.1"
   id="Layer_1"
   width="70.45"
   height="109.75"
   viewBox="0 0 70.45 109.75"
   style="overflow:visible;enable-background:new 0 0 70.45 109.75;"
   xml:space="preserve"
   sodipodi:version="0.32"
   inkscape:version="0.45.1"
   sodipodi:docname="Piperidin.svg"
   inkscape:output_extension="org.inkscape.output.svg.inkscape"
   sodipodi:docbase="C:\"><metadata
   id="metadata26"><rdf:RDF><cc:Work
       rdf:about=""><dc:format>image/svg+xml</dc:format><dc:type
         rdf:resource="http://purl.org/dc/dcmitype/StillImage" /></cc:Work></rdf:RDF></metadata><defs
   id="defs24" /><sodipodi:namedview
   inkscape:window-height="579"
   inkscape:window-width="801"
   inkscape:pageshadow="2"
   inkscape:pageopacity="0.0"
   guidetolerance="10.0"
   gridtolerance="10.0"
   objecttolerance="10.0"
   borderopacity="1.0"
   bordercolor="#666666"
   pagecolor="#ffffff"
   id="base"
   inkscape:zoom="3.4441913"
   inkscape:cx="35.224998"
   inkscape:cy="54.875"
   inkscape:window-x="176"
   inkscape:window-y="176"
   inkscape:current-layer="Layer_1" />
<g
   id="g3"
   transform="matrix(0.95,0,0,0.95,1.76125,2.74375)">
	<path
   style="fill:#231f20"
   d="M 28.428,89.8 L 28.428,72.613 L 30.768,72.613 L 39.771,86.102 L 39.771,72.613 L 41.959,72.613 L 41.959,89.8 L 39.619,89.8 L 30.616,76.311 L 30.616,89.8 L 28.428,89.8 z "
   id="path5" />
</g>
<g
   id="g7"
   transform="matrix(0.95,0,0,0.95,1.76125,2.74375)">
	<path
   style="fill:#231f20"
   d="M 28.538,109.75 L 28.538,92.562 L 30.819,92.562 L 30.819,99.625 L 39.709,99.625 L 39.709,92.562 L 41.99,92.562 L 41.99,109.75 L 39.709,109.75 L 39.709,101.656 L 30.819,101.656 L 30.819,109.75 L 28.538,109.75 z "
   id="path9" />
</g>
<path
   style="fill:#231f20"
   d="M 3.37625,59.74375 L 1.76125,60.69375 L 1.76125,22.07625 L 3.37625,22.97875 L 3.37625,59.74375 z "
   id="polygon11" />
<path
   style="fill:#231f20"
   d="M 25.79625,72.71125 L 24.98875,74.08875 L 1.76125,60.69375 L 3.37625,59.74375 L 25.79625,72.71125 z "
   id="polygon13" />
<path
   style="fill:#231f20"
   d="M 67.07375,59.74375 L 68.68875,60.69375 L 45.36625,74.18375 L 44.55875,72.75875 L 67.07375,59.74375 z "
   id="polygon15" />
<path
   style="fill:#231f20"
   d="M 67.07375,22.97875 L 68.68875,22.07625 L 68.68875,60.69375 L 67.07375,59.74375 L 67.07375,22.97875 z "
   id="polygon17" />
<path
   style="fill:#231f20"
   d="M 35.20125,4.59625 L 35.20125,2.74375 L 68.68875,22.07625 L 67.07375,22.97875 L 35.20125,4.59625 z "
   id="polygon19" />
<path
   style="fill:#231f20"
   d="M 3.37625,22.97875 L 1.76125,22.07625 L 35.20125,2.74375 L 35.20125,4.59625 L 3.37625,22.97875 z "
   id="polygon21" />
</svg>