<?xml version="1.0" encoding="UTF-8"?>
<svg width="101pt" version="1.1" xmlns="http://www.w3.org/2000/svg" height="52pt" viewBox="0 0 101 52" xmlns:xlink="http://www.w3.org/1999/xlink">
 <defs>
  <clipPath id="Clip0">
   <path d="M0 0 L101 0 L101 52 L0 52 L0 0 Z" transform="translate(0, 0)"/>
  </clipPath>
 </defs>
 <g id="Hintergrund">
  <g id="Gruppe1" clip-path="url(#Clip0)">
   <path style="fill:#000000; fill-rule:evenodd;stroke:none;" d="M2.23145 9.96 L7.99118 9.96 C9.98338 9.96 10.8711 10.9199 10.8711 13.0801 L10.8477 14.6397 C10.8477 15.7197 11.0401 16.7764 11.3516 17.4961 L14.0635 17.4961 L14.0635 16.9443 C13.2237 16.3682 13.0557 15.7441 13.0078 13.416 C12.9834 10.5361 12.5274 9.6719 10.6319 8.8565 C12.5996 7.8965 13.3916 6.6719 13.3916 4.6797 C13.3916 1.6563 11.4951 0 8.06348 0 L0 0 L0 17.4961 L2.23145 17.4961 L2.23145 9.96 Z M2.23145 7.9922 L2.23145 1.9678 L7.63188 1.9678 C8.87988 1.9678 9.59958 2.1602 10.1514 2.6406 C10.752 3.1445 11.0635 3.9365 11.0635 4.9922 C11.0635 7.0557 10.0078 7.9922 7.63188 7.9922 L2.23145 7.9922 Z" transform="translate(5.10742, 12.1289)"/>
   <path style="fill:#000000; fill-rule:evenodd;stroke:none;" d="M2.8262 3.67192 L2.8262 12.7617 L4.4102 12.7617 L4.4102 0 L3.3662 0 C2.8077 1.96192 2.4483 2.23142 0 2.53812 L0 3.67192 L2.8262 3.67192 Z" transform="translate(22.0234, 7.86328)"/>
   <path style="fill:#0000ff; fill-rule:evenodd;stroke:none;" d="M13.1514 5.4238 C13.128 1.9922 10.7754 0 6.7442 0 C2.9034 0 0.5274 1.9678 0.5274 5.1358 C0.5274 7.2725 1.6553 8.6162 3.96 9.2158 L8.3038 10.3682 C10.5118 10.9444 11.5196 11.8321 11.5196 13.2002 C11.5196 14.1358 11.0157 15.0957 10.2715 15.624 C9.5752 16.1045 8.4717 16.3682 7.0557 16.3682 C5.1592 16.3682 3.8633 15.9121 3.0235 14.9043 C2.376 14.1358 2.0879 13.2959 2.1114 12.2158 L0 12.2158 C0.0235 13.8242 0.336 14.8799 1.0313 15.8399 C2.2315 17.4727 4.2481 18.336 6.9122 18.336 C9 18.336 10.7041 17.8565 11.8321 16.9922 C13.0079 16.0567 13.752 14.4961 13.752 12.9844 C13.752 10.8242 12.4073 9.2403 10.0313 8.5918 L5.6397 7.416 C3.5274 6.8399 2.7598 6.168 2.7598 4.8242 C2.7598 3.0479 4.3194 1.8721 6.6719 1.8721 C9.4561 1.8721 11.0157 3.1446 11.0401 5.4238 L13.1514 5.4238 Z" transform="translate(39.1523, 31.7158)"/>
   <path style="fill:#000000; fill-rule:nonzero;stroke:none;" d="M15.8496 8.6494 L15 10.0996 L0 1.4492 L0.8496 0 L15.8496 8.6494 Z" transform="translate(21.9004, 25.6504)"/>
   <path style="fill:#000000; fill-rule:evenodd;stroke:none;" d="M2.2315 9.96 L7.9912 9.96 C9.9834 9.96 10.8711 10.9199 10.8711 13.0801 L10.8477 14.6397 C10.8477 15.7197 11.0401 16.7764 11.3516 17.4961 L14.0635 17.4961 L14.0635 16.9443 C13.2237 16.3682 13.0557 15.7441 13.0078 13.416 C12.9834 10.5361 12.5274 9.6719 10.6319 8.8565 C12.5996 7.8965 13.3916 6.6719 13.3916 4.6797 C13.3916 1.6563 11.4951 0 8.0635 0 L0 0 L0 17.4961 L2.2315 17.4961 L2.2315 9.96 Z M2.2315 7.9922 L2.2315 1.9678 L7.6319 1.9678 C8.8799 1.9678 9.5996 2.1602 10.1514 2.6406 C10.752 3.1445 11.0635 3.9365 11.0635 4.9922 C11.0635 7.0557 10.0078 7.9922 7.6319 7.9922 L2.2315 7.9922 Z" transform="translate(73.8574, 12.1289)"/>
   <path style="fill:#000000; fill-rule:evenodd;stroke:none;" d="M8.4961 11.1953 L1.7813 11.1953 C1.9434 10.1513 2.5195 9.48532 4.0859 8.56742 L5.8857 7.59572 C7.668 6.62402 8.5859 5.30962 8.5859 3.74412 C8.5859 2.68162 8.1533 1.69141 7.3975 1.00781 C6.6416 0.32422 5.7061 0 4.5 0 C2.8799 0 1.6738 0.57617 0.9717 1.65527 C0.5215 2.33982 0.3232 3.13182 0.2881 4.42772 L1.8721 4.42772 C1.9258 3.56352 2.0342 3.04202 2.25 2.62792 C2.6641 1.85352 3.4912 1.38574 4.4453 1.38574 C5.8857 1.38574 6.9658 2.41212 6.9658 3.77932 C6.9658 4.78812 6.3721 5.65132 5.2373 6.29982 L3.582 7.23532 C0.918 8.74802 0.1436 9.95412 0 12.7617 L8.4961 12.7617 L8.4961 11.1953 Z" transform="translate(89.5498, 7.86328)"/>
   <path style="fill:#000000; fill-rule:nonzero;stroke:none;" d="M15.5996 0 L16.4502 1.5 L0.8496 10.5 L0 9.0508 L15.5996 0 Z" transform="translate(53.9502, 25.3496)"/>
  </g>
 </g>
</svg>
