<?xml version="1.0" encoding="UTF-8"?>
<svg width="81pt" version="1.1" xmlns="http://www.w3.org/2000/svg" height="77pt" viewBox="0 0 81 77" xmlns:xlink="http://www.w3.org/1999/xlink">
 <defs>
  <clipPath id="Clip0">
   <path d="M0 0 L70.614 0 L70.614 66.699 L0 66.699 L0 0 Z" transform="translate(3.63, 4.79)"/>
  </clipPath>
 </defs>
 <g id="Background">
  <g id="Group6" clip-path="url(#Clip0)">
   <path style="fill:#161413; fill-rule:evenodd;stroke:none;" d="M0 1.489 L0 0 L1.488 0 L1.488 1.489 L0 1.489 Z M0 5.219 L0 3.727 L1.488 3.727 L1.488 5.219 L0 5.219 Z" transform="translate(72.756, 33.98)"/>
   <path style="fill:#161413; fill-rule:evenodd;stroke:none;" d="M0 7.5 L1.5 7.5 C1.562 8.097 1.707 8.586 1.933 8.969 C2.101 9.363 2.517 9.662 3 9.899 C3.481 10.167 4.023 10.25 4.625 10.25 C5.117 10.25 5.63 10.162 6.039 9.985 C6.434 9.811 6.751 9.559 6.949 9.246 C7.083 8.936 7.25 8.612 7.25 8.278 C7.25 8.016 7.164 7.648 6.992 7.395 C6.739 7.178 6.512 6.926 6.07 6.746 C5.762 6.631 5.158 6.448 4.187 6.2 C3.156 5.967 2.525 5.715 2.109 5.496 C1.531 5.219 1.164 4.873 0.898 4.461 C0.583 4.061 0.5 3.584 0.5 3.071 C0.5 2.569 0.657 1.984 0.972 1.496 C1.213 1.008 1.747 0.636 2.351 0.383 C2.922 0.167 3.627 0 4.367 0 C5.142 0 5.9 0.131 6.523 0.391 C7.137 0.686 7.623 1.031 7.957 1.536 C8.22 2.113 8.469 2.613 8.496 3.25 L7 3.25 C6.926 2.592 6.681 2.094 6.265 1.758 C5.845 1.5 5.239 1.25 4.429 1.25 C3.523 1.25 2.965 1.416 2.578 1.746 C2.166 2.079 2 2.476 2 2.942 C2 3.366 2.136 3.679 2.41 3.942 C2.625 4.222 3.38 4.471 4.515 4.746 C5.648 5.022 6.441 5.258 6.879 5.461 C7.47 5.772 7.984 6.136 8.289 6.594 C8.58 7.102 8.746 7.577 8.746 8.172 C8.664 8.789 8.579 9.321 8.246 9.844 C7.83 10.42 7.431 10.776 6.804 11.067 C6.158 11.416 5.47 11.5 4.687 11.5 C3.63 11.5 2.857 11.345 2.183 11.036 C1.45 10.795 0.984 10.253 0.601 9.625 C0.187 9.039 0.02 8.289 0 7.5 Z" transform="translate(31.35, 30.109)"/>
   <path style="fill:#161413; fill-rule:evenodd;stroke:none;" d="M0 5.899 C0 4.086 0.477 2.609 1.434 1.567 C2.328 0.584 3.622 0 5.133 0 C6.078 0 7.013 0.246 7.805 0.735 C8.58 1.23 9.204 1.909 9.621 2.786 C9.997 3.735 10.246 4.659 10.246 5.77 C10.164 6.975 10.025 7.907 9.586 8.797 C9.119 9.753 8.527 10.359 7.723 10.817 C6.846 11.334 6.055 11.5 5.125 11.5 C4.075 11.5 3.215 11.249 2.418 10.743 C1.567 10.241 1.021 9.547 0.613 8.672 C0.166 7.824 0 6.874 0 5.899 Z M1.5 5.918 C1.5 7.288 1.844 8.317 2.531 9.09 C3.208 9.917 4.08 10.25 5.117 10.25 C6.135 10.25 7.043 9.862 7.723 9.083 C8.33 8.358 8.746 7.194 8.746 5.758 C8.664 4.933 8.6 4.061 8.309 3.383 C7.997 2.746 7.59 2.182 7.027 1.809 C6.458 1.5 5.838 1.25 5.141 1.25 C4.099 1.25 3.29 1.61 2.574 2.329 C1.833 3.102 1.5 4.242 1.5 5.918 Z" transform="translate(3.63, 21.229)"/>
   <path style="fill:none;stroke:#000000; stroke-width:1.19999; stroke-linecap:round; stroke-linejoin:miter; stroke-dasharray:none;" d="M11.16 3.719 L0 0 " transform="translate(15.6, 32.72)"/>
   <path style="fill:none;stroke:#000000; stroke-width:1.19999; stroke-linecap:round; stroke-linejoin:miter; stroke-dasharray:none;" d="M11.16 3.72 L0 0 " transform="translate(17.16, 27.92)"/>
   <path style="fill:#161413; fill-rule:evenodd;stroke:none;" d="M7.996 7.414 L9.496 7.789 C9.117 9.065 8.664 9.916 7.891 10.551 C7.071 11.25 6.17 11.5 5.051 11.5 C3.875 11.5 2.95 11.256 2.223 10.77 C1.424 10.357 0.947 9.573 0.567 8.648 C0.166 7.756 0 6.729 0 5.668 C0 4.537 0.212 3.499 0.637 2.637 C1.016 1.813 1.665 1.12 2.45 0.672 C3.166 0.25 4.095 0 5.035 0 C6.091 0 7 0.283 7.727 0.848 C8.377 1.464 8.959 2.209 9.246 3.234 L7.75 3.574 C7.508 2.823 7.158 2.175 6.7 1.805 C6.174 1.5 5.662 1.25 4.965 1.25 C4.094 1.25 3.496 1.456 2.957 1.867 C2.352 2.32 2.043 2.827 1.825 3.52 C1.583 4.287 1.5 4.924 1.5 5.66 C1.5 6.639 1.63 7.436 1.891 8.141 C2.107 8.883 2.561 9.375 3.114 9.727 C3.627 10.084 4.264 10.25 4.91 10.25 C5.638 10.25 6.353 10.012 6.895 9.535 C7.391 9.131 7.806 8.352 7.996 7.414 Z" transform="translate(42.03, 4.79)"/>
   <path style="fill:#161413; fill-rule:evenodd;stroke:none;" d="M0 11 L0 0 L1.5 0 L1.5 4.5 L7 4.5 L7 0 L8.496 0 L8.496 11 L7 11 L7 5.75 L1.5 5.75 L1.5 11 L0 11 Z" transform="translate(54.771, 5.04)"/>
   <path style="fill:#161413; fill-rule:evenodd;stroke:none;" d="M0 6 L1 5.75 C1.123 6.281 1.31 6.664 1.563 6.898 C1.797 7.167 2.2 7.25 2.707 7.25 C3.224 7.25 3.739 7.096 4.043 6.789 C4.333 6.549 4.5 6.096 4.5 5.64 C4.5 5.245 4.34 4.85 4.02 4.566 C3.693 4.343 3.291 4.14 2.797 4.14 C2.579 4.177 2.341 4.177 2.04 4.25 L2.161 3.25 C2.177 3.257 2.287 3.261 2.329 3.261 C2.729 3.341 3.141 3.167 3.485 2.976 C3.75 2.792 4 2.488 4 2.089 C4 1.831 3.868 1.518 3.602 1.312 C3.302 1.167 2.994 1 2.575 1 C2.133 1 1.81 1.125 1.532 1.375 C1.245 1.667 1.079 2 1 2.5 L0 2.25 C0.127 1.537 0.415 0.983 0.864 0.589 C1.274 0.25 1.869 0 2.536 0 C2.982 0 3.416 0.092 3.805 0.277 C4.174 0.534 4.489 0.709 4.692 1.027 C4.833 1.417 5 1.677 5 2.031 C5 2.443 4.905 2.678 4.715 2.957 C4.454 3.248 4.243 3.453 3.868 3.617 C4.315 3.773 4.748 3.963 5.047 4.32 C5.333 4.737 5.5 5.123 5.5 5.656 C5.5 6.412 5.232 6.994 4.696 7.496 C4.096 8 3.486 8.25 2.668 8.25 C1.875 8.25 1.319 8.042 0.832 7.625 C0.318 7.248 0.068 6.664 0 6 Z" transform="translate(64.94, 11.27)"/>
   <path style="fill:none;stroke:#000000; stroke-width:1.19999; stroke-linecap:round; stroke-linejoin:miter; stroke-dasharray:none;" d="M0 7.319 L3.12 0 " transform="translate(40.08, 19.04)"/>
   <path style="fill:#161413; fill-rule:evenodd;stroke:none;" d="M7.997 7.414 L9.497 7.789 C9.118 9.066 8.665 9.916 7.891 10.551 C7.071 11.25 6.17 11.5 5.051 11.5 C3.876 11.5 2.95 11.256 2.223 10.77 C1.424 10.358 0.947 9.574 0.567 8.649 C0.167 7.756 0 6.729 0 5.668 C0 4.537 0.212 3.499 0.637 2.637 C1.016 1.813 1.666 1.12 2.45 0.672 C3.167 0.25 4.095 0 5.036 0 C6.091 0 7 0.283 7.727 0.848 C8.377 1.464 8.959 2.209 9.247 3.235 L7.75 3.574 C7.508 2.824 7.158 2.175 6.7 1.805 C6.174 1.5 5.663 1.25 4.965 1.25 C4.094 1.25 3.497 1.456 2.958 1.867 C2.352 2.321 2.043 2.827 1.825 3.52 C1.584 4.287 1.5 4.924 1.5 5.66 C1.5 6.639 1.63 7.436 1.891 8.141 C2.107 8.883 2.561 9.375 3.114 9.727 C3.627 10.084 4.264 10.25 4.911 10.25 C5.638 10.25 6.353 10.012 6.895 9.535 C7.391 9.131 7.806 8.352 7.997 7.414 Z" transform="translate(34.23, 59.989)"/>
   <path style="fill:#161413; fill-rule:evenodd;stroke:none;" d="M0 11 L0 0 L1.25 0 L1.25 11 L0 11 Z" transform="translate(45.478, 60.239)"/>
   <path style="fill:none;stroke:#000000; stroke-width:1.19999; stroke-linecap:round; stroke-linejoin:miter; stroke-dasharray:none;" d="M0 0 L0.121 0.84 " transform="translate(47.4, 35.96)"/>
   <path style="fill:none;stroke:#000000; stroke-width:1.19999; stroke-linecap:round; stroke-linejoin:miter; stroke-dasharray:none;" d="M0 0 L0.12 1.801 " transform="translate(52.2, 35.359)"/>
   <path style="fill:none;stroke:#000000; stroke-width:1.19999; stroke-linecap:round; stroke-linejoin:miter; stroke-dasharray:none;" d="M0 0 L0.12 2.64 " transform="translate(57, 34.88)"/>
   <path style="fill:none;stroke:#000000; stroke-width:1.19999; stroke-linecap:round; stroke-linejoin:miter; stroke-dasharray:none;" d="M0 0 L0.12 3.601 " transform="translate(61.8, 34.279)"/>
   <path style="fill:none;stroke:#000000; stroke-width:1.19999; stroke-linecap:round; stroke-linejoin:miter; stroke-dasharray:none;" d="M0 0 L0.12 4.559 " transform="translate(66.6, 33.68)"/>
   <path style="fill:#000000; fill-rule:evenodd;stroke:none;" d="M0.6 0.12 L1.8 0 L5.04 11.641 L2.52 12 L0 12.24 " transform="translate(35.16, 44.239)"/>
  </g>
 </g>
</svg>
